<?xml version="1.0" standalone="no"?><!DOCTYPE svg PUBLIC "-//W3C//DTD SVG 1.1//EN" "http://www.w3.org/Graphics/SVG/1.1/DTD/svg11.dtd"><svg t="1784882070175" class="icon" viewBox="0 0 1024 1024" version="1.1" xmlns="http://www.w3.org/2000/svg" p-id="7128" xmlns:xlink="http://www.w3.org/1999/xlink" width="200" height="200"><path d="M853.333333 640v85.333333H170.666667v-85.333333H85.333333v-213.333333h85.333334V341.333333h682.666666v85.333334h85.333334v213.333333h-85.333334z m-85.333333 0v-213.333333H256v213.333333h512zM554.666667 213.333333v85.333334h-85.333334V213.333333h85.333334z m-149.333334 384c-34.133333 0-64-29.866667-64-64S371.2 469.333333 405.333333 469.333333s64 29.866667 64 64-29.866667 64-64 64z m213.333334 0c-34.133333 0-64-29.866667-64-64s29.866667-64 64-64 64 29.866667 64 64-29.866667 64-64 64z" fill="#1296db" p-id="7129"></path></svg>